<?xml version="1.0" standalone="no"?>
<!DOCTYPE svg PUBLIC "-//W3C//DTD SVG 20010904//EN"
 "http://www.w3.org/TR/2001/REC-SVG-20010904/DTD/svg10.dtd">
<svg version="1.0" xmlns="http://www.w3.org/2000/svg"
 width="2048.000000pt" height="2048.000000pt" viewBox="0 0 2048.000000 2048.000000"
 preserveAspectRatio="xMidYMid meet">

<g transform="translate(0.000000,2048.000000) scale(0.100000,-0.100000)"
fill="#000000" stroke="none">
<path d="M4400 13879 c-261 -23 -523 -114 -680 -234 -189 -145 -303 -347 -329
-582 -28 -261 48 -472 227 -627 198 -172 444 -273 978 -406 516 -129 618 -160
779 -239 171 -85 239 -142 287 -239 28 -56 34 -79 36 -153 5 -108 -10 -180
-54 -267 -57 -115 -187 -220 -337 -271 -161 -56 -459 -87 -677 -71 -264 20
-413 55 -574 137 -93 48 -124 70 -191 137 -91 92 -136 172 -161 289 -9 39 -19
83 -22 96 l-7 24 -195 1 -195 0 3 -49 c5 -75 58 -268 97 -351 142 -309 416
-512 805 -599 193 -43 273 -50 535 -49 138 0 293 6 345 13 501 65 849 292 966
631 36 102 57 258 50 365 -7 117 -27 190 -77 294 -51 104 -155 213 -279 294
-211 136 -388 198 -1002 351 -380 95 -571 155 -692 219 -147 78 -241 173 -267
270 -13 49 -6 177 15 252 36 136 115 220 281 301 145 70 268 101 439 112 407
27 740 -62 927 -247 86 -85 130 -162 159 -275 l18 -71 173 -5 c239 -7 222 -12
214 63 -37 321 -232 580 -560 745 -134 67 -342 121 -544 142 -116 11 -362 11
-491 -1z"/>
<path d="M9630 13875 c-276 -39 -550 -177 -684 -344 -112 -138 -170 -288 -185
-473 -17 -203 17 -326 138 -510 83 -127 226 -251 314 -273 15 -4 30 -11 32
-16 3 -4 -28 -24 -69 -42 -211 -98 -380 -261 -462 -445 -51 -116 -68 -198 -68
-342 0 -149 13 -215 65 -350 99 -259 372 -498 679 -594 164 -52 229 -61 450
-60 223 2 335 18 490 71 287 98 511 311 602 573 47 135 50 168 55 582 l5 398
162 2 161 3 3 173 2 172 -165 0 -165 0 0 110 0 110 -180 0 -180 0 0 -110 0
-110 -454 0 c-265 0 -486 4 -531 11 -84 11 -187 50 -272 101 -153 91 -243 283
-230 488 17 253 162 420 442 510 57 18 102 23 238 28 196 5 289 -6 394 -50
129 -53 230 -133 299 -239 l43 -66 193 5 c106 2 195 6 197 8 8 7 -43 153 -71
204 -138 247 -357 396 -688 465 -108 23 -425 29 -560 10z m998 -2212 c-4 -374
-5 -390 -27 -453 -12 -36 -33 -83 -46 -106 -85 -147 -292 -282 -480 -314 -196
-33 -340 -31 -500 6 -254 60 -489 280 -536 501 -17 84 -7 253 20 324 81 214
315 383 581 419 30 4 266 8 523 9 l469 1 -4 -387z"/>
<path d="M14223 13853 l-203 -3 0 -1695 0 -1695 190 0 c105 0 191 1 192 3 1 1
5 643 8 1426 l5 1423 62 -88 c51 -73 374 -515 507 -694 44 -59 488 -665 586
-800 154 -212 795 -1088 862 -1177 l68 -93 225 0 225 0 0 1695 0 1695 -195 0
-195 0 0 -1422 0 -1423 -20 25 c-12 14 -45 59 -75 100 -30 41 -129 176 -220
300 -91 124 -246 335 -345 470 -99 135 -272 371 -386 525 -113 154 -268 366
-345 470 -651 889 -698 953 -715 959 -9 3 -19 5 -22 4 -4 -2 -98 -4 -209 -5z"/>
<path d="M7819 10012 c-97 -40 -162 -112 -199 -222 -31 -91 -26 -230 12 -311
54 -119 149 -188 268 -197 80 -5 134 8 196 51 104 69 158 181 157 322 0 161
-69 282 -196 347 -58 29 -177 34 -238 10z m191 -60 c39 -19 94 -94 110 -150
19 -64 24 -177 10 -244 -35 -180 -149 -267 -275 -209 -87 39 -135 146 -135
299 0 156 39 251 124 303 40 24 119 25 166 1z"/>
<path d="M15074 10010 c-75 -30 -135 -87 -175 -167 -33 -66 -34 -71 -34 -188
0 -114 2 -123 31 -185 37 -76 91 -134 154 -164 35 -16 64 -21 135 -21 81 0 95
3 143 29 135 75 199 217 180 399 -13 123 -78 227 -178 281 -71 39 -182 45
-256 16z m236 -97 c63 -68 85 -137 85 -263 0 -148 -49 -256 -134 -300 -73 -37
-158 -17 -214 49 -64 76 -92 241 -63 364 19 82 35 115 77 157 44 44 64 50 138
47 63 -3 65 -4 111 -54z"/>
<path d="M3484 10012 c-17 -2 -28 -22 -53 -95 -17 -51 -69 -197 -114 -326
l-82 -235 -45 -10 c-28 -7 -46 -17 -48 -28 -3 -13 9 -17 70 -23 40 -3 96 -4
123 -2 41 4 50 8 50 23 0 15 -11 21 -47 28 -27 5 -48 14 -47 20 0 6 13 45 28
86 l27 75 124 0 123 0 23 -67 c12 -36 25 -75 28 -86 6 -18 1 -21 -44 -27 -39
-5 -50 -11 -50 -25 0 -15 11 -20 56 -26 51 -6 223 2 233 11 12 13 -12 35 -39
35 -25 0 -33 6 -45 33 -17 37 -201 562 -211 602 -7 29 -29 43 -60 37z m86
-424 c0 -5 -45 -8 -100 -8 -55 0 -100 2 -100 4 0 10 73 232 88 265 l15 36 48
-145 c27 -79 49 -148 49 -152z"/>
<path d="M6353 10012 l-183 -2 0 -64 c0 -35 -3 -78 -6 -95 -6 -29 -5 -31 24
-31 28 0 32 4 43 43 28 101 17 92 102 95 l77 3 1 -168 c2 -198 -2 -436 -7
-442 -1 -2 -23 -6 -48 -8 -40 -5 -67 -25 -48 -36 20 -12 135 -18 222 -11 89 6
100 9 100 25 0 16 -8 19 -44 19 -25 0 -48 6 -55 14 -8 9 -11 99 -9 307 l3 294
80 0 80 0 14 -67 c13 -65 15 -68 43 -68 l28 0 0 95 c0 52 -3 95 -7 95 -88 4
-267 4 -410 2z"/>
<path d="M9177 10012 c-66 -2 -78 -5 -75 -19 2 -10 20 -21 48 -27 l45 -11 3
-270 c1 -148 0 -284 -3 -302 -5 -29 -10 -33 -50 -39 -34 -5 -45 -11 -45 -24 0
-14 12 -19 69 -24 94 -9 171 1 171 23 0 12 -13 20 -42 27 l-43 9 -2 243 c-1
216 4 279 20 225 2 -10 55 -134 117 -275 72 -165 118 -258 127 -258 15 0 29
29 146 295 41 94 84 190 95 215 l20 45 1 -246 1 -247 -22 -6 c-13 -3 -33 -6
-45 -6 -16 0 -23 -6 -23 -19 0 -17 10 -20 66 -27 58 -6 222 1 231 10 2 2 1 11
-3 20 -4 11 -18 16 -45 16 -33 0 -41 4 -49 26 -12 29 -13 563 -2 581 4 6 25
14 47 19 40 7 58 21 49 36 -3 4 -47 8 -99 8 -88 0 -94 -1 -101 -22 -3 -13 -15
-41 -25 -63 -10 -22 -52 -119 -94 -215 -43 -96 -87 -197 -99 -224 l-23 -50
-27 60 c-15 32 -71 160 -123 284 -53 124 -96 226 -97 226 -5 7 -54 9 -119 6z"/>
<path d="M11119 10008 c-9 -7 -58 -134 -109 -283 -142 -413 -123 -372 -175
-380 -35 -5 -45 -10 -45 -25 0 -15 11 -20 63 -25 65 -7 173 -2 183 8 16 16 -9
36 -51 43 -45 6 -47 8 -41 35 3 16 16 55 28 87 l23 57 122 3 121 3 26 -78 c14
-43 26 -83 26 -89 0 -7 -21 -16 -47 -20 -31 -6 -49 -15 -51 -25 -4 -21 99 -32
215 -23 70 6 83 10 81 23 -2 10 -15 17 -35 19 -17 2 -36 9 -41 15 -10 12 -86
222 -184 507 -55 162 -69 181 -109 148z m50 -266 c24 -75 46 -143 48 -149 4
-10 -20 -13 -96 -13 -70 0 -101 4 -101 12 0 19 92 288 99 288 3 0 26 -62 50
-138z"/>
<path d="M12398 10012 l-118 -3 0 -48 c0 -26 -3 -69 -6 -95 -6 -44 -6 -46 18
-46 34 0 45 16 54 78 8 61 16 65 109 60 l60 -3 3 -301 2 -301 -31 -7 c-17 -3
-42 -6 -55 -6 -17 0 -24 -6 -24 -19 0 -16 11 -19 86 -24 48 -3 122 -3 166 0
65 5 78 9 76 22 -2 11 -19 18 -52 23 -26 4 -50 9 -52 11 -9 9 -17 435 -10 520
l8 88 81 -3 81 -3 8 -45 c14 -87 16 -90 48 -90 l30 0 -7 93 c-3 50 -8 94 -10
97 -5 5 -284 7 -465 2z"/>
<path d="M4652 9993 c2 -12 15 -20 38 -23 31 -5 35 -9 42 -45 4 -22 7 -126 7
-231 1 -225 11 -273 72 -339 92 -100 285 -102 373 -4 67 73 70 88 74 354 3
262 4 265 63 265 25 0 45 21 32 34 -4 3 -62 6 -130 6 -113 0 -123 -1 -123 -19
0 -14 11 -20 53 -27 l52 -9 0 -220 c0 -189 -3 -227 -18 -267 -34 -89 -116
-131 -210 -109 -55 13 -82 35 -107 86 -19 39 -23 68 -27 203 -3 86 -3 192 1
234 l8 78 49 6 c39 5 49 10 49 25 0 18 -10 19 -151 19 -138 0 -150 -1 -147
-17z"/>
<path d="M13702 9993 c2 -12 16 -20 42 -24 21 -3 42 -12 47 -20 5 -8 9 -143 9
-302 l0 -287 -26 -10 c-14 -6 -36 -10 -50 -10 -17 0 -24 -6 -24 -19 0 -17 10
-20 83 -26 105 -9 222 4 222 25 0 9 -15 17 -44 22 -25 4 -48 11 -53 16 -5 5
-7 141 -6 303 l3 294 45 9 c45 9 63 23 54 38 -3 4 -73 8 -155 8 -137 0 -150
-2 -147 -17z"/>
<path d="M16362 9993 c2 -10 16 -20 34 -24 17 -3 36 -9 42 -13 9 -5 12 -90 12
-307 0 -259 -2 -299 -15 -300 -8 -1 -19 -3 -25 -4 -5 -1 -19 -3 -30 -4 -12 -1
-20 -8 -20 -20 0 -16 10 -19 78 -24 42 -3 95 -4 117 -2 22 2 46 4 53 4 8 1 12
9 10 19 -2 12 -19 20 -56 27 l-53 10 -4 195 c-2 107 0 221 3 253 l7 58 209
-285 c115 -157 216 -288 224 -291 9 -3 19 0 24 7 4 7 8 160 8 339 l0 325 43
10 c26 6 42 14 42 24 0 12 -22 15 -127 18 -121 2 -128 2 -128 -17 0 -16 10
-21 53 -28 l52 -8 3 -235 c1 -133 -1 -230 -6 -225 -13 15 -228 307 -307 417
l-70 97 -88 1 c-78 0 -88 -2 -85 -17z"/>
</g>
</svg>
